<svg xmlns="http://www.w3.org/2000/svg" width="150" height="150" fill="none" viewBox="0 0 150 150"><rect width="9" height="48.9" x="106.396" y="37.24" fill="#003543" transform="rotate(45 106.396 37.2405)"/><rect width="9" height="48.9" x="71.818" y="71.818" fill="#003543" transform="rotate(45 71.8181 71.818)"/><rect width="9" height="48.9" x="37.24" y="43.605" fill="#003543" transform="rotate(-45 37.2405 43.6045)"/><rect width="9" height="48.9" x="71.818" y="78.182" fill="#003543" transform="rotate(-45 71.8181 78.182)"/><circle cx="75" cy="75" r="41" fill="#71A2B0"/><circle cx="75" cy="75" r="25" fill="#003543"/><ellipse cx="38.45" cy="38.75" fill="#71A2B0" rx="16.55" ry="16.55"/><ellipse cx="38.45" cy="38.75" fill="#003543" rx="10.278" ry="10.278"/><ellipse cx="38.45" cy="111.25" fill="#71A2B0" rx="16.55" ry="16.55"/><ellipse cx="38.45" cy="111.25" fill="#003543" rx="10.278" ry="10.278"/><ellipse cx="111.7" cy="38.6" fill="#71A2B0" rx="16.4" ry="16.4"/><ellipse cx="111.7" cy="38.6" fill="#003543" rx="10.185" ry="10.185"/><ellipse cx="111.5" cy="111.5" fill="#71A2B0" rx="16.5" ry="16.5"/><ellipse cx="111.5" cy="111.5" fill="#003543" rx="10.247" ry="10.247"/></svg>